<?xml version="1.0" encoding="UTF-8" standalone="no"?>
<svg
   xmlns:dc="http://purl.org/dc/elements/1.1/"
   xmlns:cc="http://creativecommons.org/ns#"
   xmlns:rdf="http://www.w3.org/1999/02/22-rdf-syntax-ns#"
   xmlns:svg="http://www.w3.org/2000/svg"
   xmlns="http://www.w3.org/2000/svg"
   xmlns:sodipodi="http://sodipodi.sourceforge.net/DTD/sodipodi-0.dtd"
   xmlns:inkscape="http://www.inkscape.org/namespaces/inkscape"
   inkscape:export-ydpi="96"
   inkscape:export-xdpi="96"
   inkscape:export-filename="/home/sebastien/Desktop/Mint-Y-Colors/Mint-Y-Colors-ALL#1-seb-v2.png"
   sodipodi:docname="Mint-Y-Colors-ALL#1-seb-v3.svg"
   inkscape:version="1.0 (1.0+r73+1)"
   id="svg8"
   version="1.1"
   viewBox="0 0 820 920"
   height="920"
   width="820">
  <defs
     id="defs2" />
  <sodipodi:namedview
     inkscape:document-rotation="0"
     inkscape:snap-text-baseline="false"
     inkscape:bbox-nodes="true"
     inkscape:bbox-paths="true"
     inkscape:snap-bbox="true"
     fit-margin-bottom="0"
     fit-margin-left="0"
     fit-margin-right="0"
     fit-margin-top="0"
     inkscape:window-maximized="1"
     inkscape:window-y="0"
     inkscape:window-x="0"
     inkscape:window-height="835"
     inkscape:window-width="1440"
     inkscape:lockguides="false"
     units="px"
     showgrid="false"
     inkscape:current-layer="layer1"
     inkscape:document-units="px"
     inkscape:cy="75"
     inkscape:cx="424.32941"
     inkscape:zoom="1"
     inkscape:pageshadow="2"
     inkscape:pageopacity="1"
     borderopacity="1.0"
     bordercolor="#666666"
     pagecolor="#ffffff"
     id="base">
    <inkscape:grid
       empopacity="0.25098039"
       empcolor="#ff3f3f"
       spacingy="10"
       spacingx="10"
       originy="150"
       originx="0"
       id="grid818"
       type="xygrid" />
  </sodipodi:namedview>
  <metadata
     id="metadata5">
    <rdf:RDF>
      <cc:Work
         rdf:about="">
        <dc:format>image/svg+xml</dc:format>
        <dc:type
           rdf:resource="http://purl.org/dc/dcmitype/StillImage" />
        <dc:title />
      </cc:Work>
    </rdf:RDF>
  </metadata>
  <g
     transform="translate(0,-91.799988)"
     id="layer1"
     inkscape:groupmode="layer"
     inkscape:label="Layer 1">
    <rect
       style="opacity:1;vector-effect:none;fill:#808080;fill-opacity:1;stroke:none;stroke-width:0;stroke-linecap:butt;stroke-linejoin:miter;stroke-miterlimit:4;stroke-dasharray:none;stroke-dashoffset:0;stroke-opacity:1"
       id="rect903"
       width="820"
       height="150"
       x="0"
       y="91.799988" />
    <rect
       y="861.79999"
       x="0"
       height="150"
       width="820"
       id="rect4820"
       style="opacity:1;vector-effect:none;fill:#808080;fill-opacity:1;stroke:none;stroke-width:0;stroke-linecap:butt;stroke-linejoin:miter;stroke-miterlimit:4;stroke-dasharray:none;stroke-dashoffset:0;stroke-opacity:1" />
    <rect
       style="opacity:1;vector-effect:none;fill:#17a0a0;fill-opacity:1;stroke:none;stroke-width:0;stroke-linecap:butt;stroke-linejoin:miter;stroke-miterlimit:4;stroke-dasharray:none;stroke-dashoffset:0;stroke-opacity:1"
       id="rect814"
       width="180"
       height="180"
       x="220"
       y="661.79999" />
    <rect
       y="461.79999"
       x="20"
       height="180"
       width="180"
       id="rect812"
       style="opacity:1;vector-effect:none;fill:#f46a25;fill-opacity:1;stroke:none;stroke-width:0;stroke-linecap:butt;stroke-linejoin:miter;stroke-miterlimit:4;stroke-dasharray:none;stroke-dashoffset:0;stroke-opacity:1" />
    <rect
       style="opacity:1;vector-effect:none;fill:#1fad4f;fill-opacity:1;stroke:none;stroke-width:0;stroke-linecap:butt;stroke-linejoin:miter;stroke-miterlimit:4;stroke-dasharray:none;stroke-dashoffset:0;stroke-opacity:1"
       id="rect816"
       width="180"
       height="180"
       x="420"
       y="661.79999" />
    <rect
       style="opacity:1;vector-effect:none;fill:#8c48d1;fill-opacity:1;stroke:none;stroke-width:0;stroke-linecap:butt;stroke-linejoin:miter;stroke-miterlimit:4;stroke-dasharray:none;stroke-dashoffset:0;stroke-opacity:1"
       id="rect820"
       width="180"
       height="180"
       x="420"
       y="461.79999" />
    <rect
       y="461.79999"
       x="220"
       height="180"
       width="180"
       id="rect822"
       style="opacity:1;vector-effect:none;fill:#e54d80;fill-opacity:1;stroke:none;stroke-width:0;stroke-linecap:butt;stroke-linejoin:miter;stroke-miterlimit:4;stroke-dasharray:none;stroke-dashoffset:0;stroke-opacity:1" />
    <rect
       y="461.79999"
       x="620"
       height="180"
       width="180"
       id="rect824"
       style="opacity:1;vector-effect:none;fill:#df2131;fill-opacity:1;stroke:none;stroke-width:0;stroke-linecap:butt;stroke-linejoin:miter;stroke-miterlimit:4;stroke-dasharray:none;stroke-dashoffset:0;stroke-opacity:1" />
    <rect
       style="opacity:1;vector-effect:none;fill:#767676;fill-opacity:1;stroke:none;stroke-width:0;stroke-linecap:butt;stroke-linejoin:miter;stroke-miterlimit:4;stroke-dasharray:none;stroke-dashoffset:0;stroke-opacity:1"
       id="rect828"
       width="180"
       height="180"
       x="20"
       y="661.79999" />
    <rect
       style="opacity:1;vector-effect:none;fill:#1792ce;fill-opacity:1;stroke:none;stroke-width:0;stroke-linecap:butt;stroke-linejoin:miter;stroke-miterlimit:4;stroke-dasharray:none;stroke-dashoffset:0;stroke-opacity:1"
       id="rect830"
       width="180"
       height="180"
       x="20"
       y="261.79999" />
    <rect
       y="661.79999"
       x="620"
       height="180"
       width="180"
       id="rect840"
       style="opacity:1;vector-effect:none;fill:#767676;fill-opacity:1;stroke:none;stroke-width:0;stroke-linecap:butt;stroke-linejoin:miter;stroke-miterlimit:4;stroke-dasharray:none;stroke-dashoffset:0;stroke-opacity:1" />
    <text
       id="text947"
       y="118.76799"
       x="19.784"
       style="font-style:normal;font-variant:normal;font-weight:normal;font-stretch:normal;font-size:24px;line-height:1.25;font-family:'DejaVu Sans';-inkscape-font-specification:'DejaVu Sans';text-align:start;letter-spacing:0px;word-spacing:0px;text-anchor:start;fill:#000000;fill-opacity:1;stroke:none"
       xml:space="preserve"><tspan
         id="tspan955"
         style="font-style:normal;font-variant:normal;font-weight:normal;font-stretch:normal;font-size:24px;font-family:'Ubuntu Mono';-inkscape-font-specification:'Ubuntu Mono';fill:#ffffff;fill-opacity:1"
         y="118.76799"
         x="19.784"
         sodipodi:role="line">All the colors of the light base (colors1) in one picture...</tspan><tspan
         id="tspan921"
         style="font-style:normal;font-variant:normal;font-weight:normal;font-stretch:normal;font-size:24px;font-family:'Ubuntu Mono';-inkscape-font-specification:'Ubuntu Mono';fill:#ffffff;fill-opacity:1"
         y="149.91823"
         x="19.784"
         sodipodi:role="line">SebastJava’s version</tspan></text>
    <g
       id="g4818">
      <g
         transform="matrix(0,-2.0997375,2.7603289,0,-19.817755,889.57776)"
         style="display:inline"
         id="g1269">
        <rect
           transform="rotate(-90)"
           rx="6.3846035e-17"
           y="-34.395832"
           x="-297.00003"
           height="23.812498"
           width="17.991671"
           id="rect7"
           style="fill:#ff0000;fill-opacity:1;stroke:none;stroke-width:0.14998378;stroke-miterlimit:4;stroke-dasharray:none;stroke-opacity:1" />
        <rect
           transform="rotate(-90)"
           style="fill:#00ff00;fill-opacity:1;stroke:none;stroke-width:0.14998378;stroke-miterlimit:4;stroke-dasharray:none;stroke-opacity:1"
           id="rect9"
           width="17.991671"
           height="23.812498"
           x="-270.54169"
           y="-34.395832"
           rx="6.3846035e-17" />
        <rect
           transform="rotate(-90)"
           rx="6.3846035e-17"
           y="-34.395832"
           x="-244.08336"
           height="23.812498"
           width="17.991671"
           id="rect11"
           style="fill:#0000ff;fill-opacity:1;stroke:none;stroke-width:0.14998378;stroke-miterlimit:4;stroke-dasharray:none;stroke-opacity:1" />
        <rect
           transform="rotate(-90)"
           style="fill:#ffff00;fill-opacity:1;stroke:none;stroke-width:0.14998378;stroke-miterlimit:4;stroke-dasharray:none;stroke-opacity:1"
           id="rect818"
           width="17.991671"
           height="23.812498"
           x="-164.70834"
           y="-34.395832"
           rx="6.3846035e-17" />
        <rect
           transform="rotate(-90)"
           rx="6.3846035e-17"
           y="-34.395832"
           x="-217.62502"
           height="23.812498"
           width="17.991671"
           id="rect820-7"
           style="fill:#00ffff;fill-opacity:1;stroke:none;stroke-width:0.14998378;stroke-miterlimit:4;stroke-dasharray:none;stroke-opacity:1" />
        <rect
           transform="rotate(-90)"
           style="fill:#ff00ff;fill-opacity:1;stroke:none;stroke-width:0.14998378;stroke-miterlimit:4;stroke-dasharray:none;stroke-opacity:1"
           id="rect822-6"
           width="17.991671"
           height="23.812498"
           x="-191.16669"
           y="-34.395832"
           rx="6.3846035e-17" />
      </g>
      <rect
         transform="scale(-1)"
         style="display:inline;fill:#000000;fill-opacity:1;stroke:none;stroke-width:0.38672301;stroke-miterlimit:4;stroke-dasharray:none;stroke-opacity:1"
         id="rect1035"
         width="56.966301"
         height="49.999996"
         x="-361.79779"
         y="-961.79999"
         rx="2.0215312e-16" />
      <rect
         transform="scale(-1)"
         rx="2.0215312e-16"
         y="-961.79999"
         x="-304.83148"
         height="49.999996"
         width="56.966301"
         id="rect1037"
         style="display:inline;fill:#0d0d0d;fill-opacity:1;stroke:none;stroke-width:0.38672301;stroke-miterlimit:4;stroke-dasharray:none;stroke-opacity:1" />
      <rect
         transform="scale(-1)"
         style="display:inline;fill:#f2f2f2;fill-opacity:1;stroke:none;stroke-width:0.38672301;stroke-miterlimit:4;stroke-dasharray:none;stroke-opacity:1"
         id="rect1039"
         width="56.966301"
         height="49.999996"
         x="-133.93265"
         y="-961.79999"
         rx="2.0215312e-16" />
      <rect
         transform="scale(-1)"
         rx="2.0215312e-16"
         y="-961.79999"
         x="-247.8652"
         height="49.999996"
         width="56.966301"
         id="rect1041"
         style="display:inline;fill:#1a1a1a;fill-opacity:1;stroke:none;stroke-width:0.38672301;stroke-miterlimit:4;stroke-dasharray:none;stroke-opacity:1" />
      <rect
         transform="scale(-1)"
         style="display:inline;fill:#e5e5e5;fill-opacity:1;stroke:none;stroke-width:0.38672301;stroke-miterlimit:4;stroke-dasharray:none;stroke-opacity:1"
         id="rect1043"
         width="56.966301"
         height="49.999996"
         x="-190.89893"
         y="-961.79999"
         rx="2.0215312e-16" />
      <rect
         rx="2.0215312e-16"
         y="-961.79999"
         x="-76.966301"
         height="49.999996"
         width="56.966301"
         id="rect1045"
         style="display:inline;fill:#ffffff;fill-opacity:1;stroke:none;stroke-width:0.38672301;stroke-miterlimit:4;stroke-dasharray:none;stroke-opacity:1"
         transform="scale(-1)" />
      <g
         aria-label="100 95 90 10 5 0"
         transform="matrix(0,-2.0997375,2.7603289,0,-19.817753,895.68868)"
         style="font-style:normal;font-weight:normal;font-size:3.52777791px;line-height:0;font-family:sans-serif;text-align:center;letter-spacing:0px;word-spacing:0px;text-anchor:middle;display:inline;fill:#000000;fill-opacity:1;stroke:none;stroke-width:0.26458335"
         id="text1051">
        <path
           inkscape:connector-curvature="0"
           d="m -22.845117,25.873067 h 0.585666 v -1.662259 l -0.601169,0.124024 v -0.451308 l 0.597724,-0.124023 h 0.630453 v 2.113566 h 0.585666 v 0.458197 h -1.79834 z"
           style="font-style:normal;font-variant:normal;font-weight:bold;font-stretch:normal;font-size:3.52777791px;line-height:20.63750076px;font-family:sans-serif;-inkscape-font-specification:'sans-serif Bold';stroke-width:0.26458335"
           id="path1070" />
        <path
           inkscape:connector-curvature="0"
           d="m -19.18298,25.042799 q 0,-0.482314 -0.09129,-0.678684 -0.08957,-0.198093 -0.303169,-0.198093 -0.213596,0 -0.304891,0.198093 -0.09129,0.19637 -0.09129,0.678684 0,0.487481 0.09129,0.687296 0.0913,0.199816 0.304891,0.199816 0.211873,0 0.303169,-0.199816 0.09129,-0.199815 0.09129,-0.687296 z m 0.66318,0.0052 q 0,0.639066 -0.275607,0.98702 -0.275608,0.346232 -0.782037,0.346232 -0.508152,0 -0.783759,-0.346232 -0.275608,-0.347954 -0.275608,-0.98702 0,-0.640787 0.275608,-0.98702 0.275607,-0.347954 0.783759,-0.347954 0.506429,0 0.782037,0.347954 0.275607,0.346233 0.275607,0.98702 z"
           style="font-style:normal;font-variant:normal;font-weight:bold;font-stretch:normal;font-size:3.52777791px;line-height:20.63750076px;font-family:sans-serif;-inkscape-font-specification:'sans-serif Bold';stroke-width:0.26458335"
           id="path1072" />
        <path
           inkscape:connector-curvature="0"
           d="m -16.730072,25.042799 q 0,-0.482314 -0.09129,-0.678684 -0.08957,-0.198093 -0.303169,-0.198093 -0.213596,0 -0.304891,0.198093 -0.09129,0.19637 -0.09129,0.678684 0,0.487481 0.09129,0.687296 0.09129,0.199816 0.304891,0.199816 0.211874,0 0.303169,-0.199816 0.09129,-0.199815 0.09129,-0.687296 z m 0.66318,0.0052 q 0,0.639066 -0.275607,0.98702 -0.275608,0.346232 -0.782037,0.346232 -0.508151,0 -0.783759,-0.346232 -0.275608,-0.347954 -0.275608,-0.98702 0,-0.640787 0.275608,-0.98702 0.275608,-0.347954 0.783759,-0.347954 0.506429,0 0.782037,0.347954 0.275607,0.346233 0.275607,0.98702 z"
           style="font-style:normal;font-variant:normal;font-weight:bold;font-stretch:normal;font-size:3.52777791px;line-height:20.63750076px;font-family:sans-serif;-inkscape-font-specification:'sans-serif Bold';stroke-width:0.26458335"
           id="path1074" />
        <path
           inkscape:connector-curvature="0"
           d="m -21.678952,46.911921 v -0.475423 q 0.158474,0.07407 0.303168,0.111965 0.144694,0.03617 0.285943,0.03617 0.296278,0 0.461643,-0.163642 0.165365,-0.165365 0.194648,-0.489204 -0.117133,0.08613 -0.24977,0.129191 -0.132636,0.04306 -0.287665,0.04306 -0.394463,0 -0.637343,-0.229099 -0.241156,-0.230821 -0.241156,-0.606337 0,-0.415134 0.268717,-0.664903 0.27044,-0.24977 0.72347,-0.24977 0.502984,0 0.778592,0.339342 0.275607,0.339342 0.275607,0.959459 0,0.637343 -0.322116,1.002523 -0.322117,0.363458 -0.883667,0.363458 -0.180868,0 -0.346232,-0.02756 -0.165365,-0.02584 -0.323839,-0.07924 z m 0.81821,-1.238512 q 0.173977,0 0.261827,-0.111966 0.08785,-0.113688 0.08785,-0.339342 0,-0.223931 -0.08785,-0.337619 -0.08785,-0.113688 -0.261827,-0.113688 -0.173977,0 -0.261827,0.113688 -0.08785,0.113688 -0.08785,0.337619 0,0.225654 0.08785,0.339342 0.08785,0.111966 0.261827,0.111966 z"
           style="font-style:normal;font-variant:normal;font-weight:bold;font-stretch:normal;font-size:3.52777791px;line-height:20.63750076px;font-family:sans-serif;-inkscape-font-specification:'sans-serif Bold';stroke-width:0.26458335"
           id="path1076" />
        <path
           inkscape:connector-curvature="0"
           d="m -19.205374,44.397001 h 1.648479 v 0.487481 h -1.119656 v 0.397909 q 0.07579,-0.02067 0.151584,-0.03101 0.07751,-0.01206 0.160197,-0.01206 0.470255,0 0.732083,0.235989 0.261827,0.234266 0.261827,0.654568 0,0.416857 -0.285943,0.652846 -0.28422,0.235989 -0.79065,0.235989 -0.218763,0 -0.434082,-0.04306 -0.213596,-0.04134 -0.425469,-0.127468 v -0.521932 q 0.210151,0.120578 0.397909,0.180867 0.18948,0.06029 0.356567,0.06029 0.241157,0 0.378961,-0.117133 0.139526,-0.118856 0.139526,-0.320394 0,-0.20326 -0.139526,-0.320394 -0.137804,-0.117133 -0.378961,-0.117133 -0.142971,0 -0.304891,0.0379 -0.161919,0.03617 -0.347955,0.113688 z"
           style="font-style:normal;font-variant:normal;font-weight:bold;font-stretch:normal;font-size:3.52777791px;line-height:20.63750076px;font-family:sans-serif;-inkscape-font-specification:'sans-serif Bold';stroke-width:0.26458335"
           id="path1078" />
        <path
           inkscape:connector-curvature="0"
           d="m -21.678952,67.549421 v -0.475423 q 0.158474,0.07407 0.303168,0.111966 0.144694,0.03617 0.285943,0.03617 0.296278,0 0.461643,-0.163642 0.165365,-0.165364 0.194648,-0.489203 -0.117133,0.08613 -0.24977,0.129191 -0.132636,0.04306 -0.287665,0.04306 -0.394463,0 -0.637343,-0.229098 -0.241156,-0.230822 -0.241156,-0.606337 0,-0.415134 0.268717,-0.664904 0.27044,-0.249769 0.72347,-0.249769 0.502984,0 0.778592,0.339342 0.275607,0.339342 0.275607,0.959459 0,0.637343 -0.322116,1.002523 -0.322117,0.363457 -0.883667,0.363457 -0.180868,0 -0.346232,-0.02756 -0.165365,-0.02584 -0.323839,-0.07924 z m 0.81821,-1.238512 q 0.173977,0 0.261827,-0.111965 0.08785,-0.113688 0.08785,-0.339342 0,-0.223931 -0.08785,-0.337619 -0.08785,-0.113689 -0.261827,-0.113689 -0.173977,0 -0.261827,0.113689 -0.08785,0.113688 -0.08785,0.337619 0,0.225654 0.08785,0.339342 0.08785,0.111965 0.261827,0.111965 z"
           style="font-style:normal;font-variant:normal;font-weight:bold;font-stretch:normal;font-size:3.52777791px;line-height:20.63750076px;font-family:sans-serif;-inkscape-font-specification:'sans-serif Bold';stroke-width:0.26458335"
           id="path1080" />
        <path
           inkscape:connector-curvature="0"
           d="m -17.956526,66.3178 q 0,-0.482314 -0.09129,-0.678684 -0.08957,-0.198093 -0.303169,-0.198093 -0.213596,0 -0.304891,0.198093 -0.09129,0.19637 -0.09129,0.678684 0,0.487481 0.09129,0.687296 0.0913,0.199816 0.304891,0.199816 0.211874,0 0.303169,-0.199816 0.09129,-0.199815 0.09129,-0.687296 z m 0.66318,0.0052 q 0,0.639065 -0.275607,0.98702 -0.275608,0.346232 -0.782037,0.346232 -0.508151,0 -0.783759,-0.346232 -0.275608,-0.347955 -0.275608,-0.98702 0,-0.640788 0.275608,-0.98702 0.275608,-0.347954 0.783759,-0.347954 0.506429,0 0.782037,0.347954 0.275607,0.346232 0.275607,0.98702 z"
           style="font-style:normal;font-variant:normal;font-weight:bold;font-stretch:normal;font-size:3.52777791px;line-height:20.63750076px;font-family:sans-serif;-inkscape-font-specification:'sans-serif Bold';stroke-width:0.26458335"
           id="path1082" />
        <path
           inkscape:connector-curvature="0"
           d="m -21.618663,87.785568 h 0.585666 v -1.662259 l -0.601169,0.124024 v -0.451308 l 0.597724,-0.124023 h 0.630453 v 2.113566 h 0.585666 v 0.458198 h -1.79834 z"
           style="font-style:normal;font-variant:normal;font-weight:bold;font-stretch:normal;font-size:3.52777791px;line-height:20.63750076px;font-family:sans-serif;-inkscape-font-specification:'sans-serif Bold';fill:#ffffff;fill-opacity:1;stroke-width:0.26458335"
           id="path1084" />
        <path
           inkscape:connector-curvature="0"
           d="m -17.956526,86.9553 q 0,-0.482313 -0.09129,-0.678684 -0.08957,-0.198093 -0.303169,-0.198093 -0.213596,0 -0.304891,0.198093 -0.09129,0.196371 -0.09129,0.678684 0,0.487481 0.09129,0.687297 0.0913,0.199815 0.304891,0.199815 0.211874,0 0.303169,-0.199815 0.09129,-0.199816 0.09129,-0.687297 z m 0.66318,0.0052 q 0,0.639065 -0.275607,0.98702 -0.275608,0.346232 -0.782037,0.346232 -0.508151,0 -0.783759,-0.346232 -0.275608,-0.347955 -0.275608,-0.98702 0,-0.640788 0.275608,-0.98702 0.275608,-0.347955 0.783759,-0.347955 0.506429,0 0.782037,0.347955 0.275607,0.346232 0.275607,0.98702 z"
           style="font-style:normal;font-variant:normal;font-weight:bold;font-stretch:normal;font-size:3.52777791px;line-height:20.63750076px;font-family:sans-serif;-inkscape-font-specification:'sans-serif Bold';fill:#ffffff;fill-opacity:1;stroke-width:0.26458335"
           id="path1086" />
        <path
           inkscape:connector-curvature="0"
           d="m -20.431828,106.3095 h 1.648479 v 0.48748 h -1.119656 v 0.39791 q 0.07579,-0.0207 0.151584,-0.031 0.07751,-0.0121 0.160197,-0.0121 0.470255,0 0.732083,0.23599 0.261827,0.23426 0.261827,0.65457 0,0.41685 -0.285943,0.65284 -0.28422,0.23599 -0.79065,0.23599 -0.218763,0 -0.434082,-0.0431 -0.213596,-0.0413 -0.425469,-0.12747 v -0.52193 q 0.210151,0.12057 0.397909,0.18086 0.18948,0.0603 0.356567,0.0603 0.241157,0 0.378961,-0.11713 0.139526,-0.11886 0.139526,-0.32039 0,-0.20327 -0.139526,-0.3204 -0.137804,-0.11713 -0.378961,-0.11713 -0.142971,0 -0.304891,0.0379 -0.161919,0.0362 -0.347955,0.11369 z"
           style="font-style:normal;font-variant:normal;font-weight:bold;font-stretch:normal;font-size:3.52777791px;line-height:20.63750076px;font-family:sans-serif;-inkscape-font-specification:'sans-serif Bold';fill:#ffffff;fill-opacity:1;stroke-width:0.26458335"
           id="path1088" />
        <path
           inkscape:connector-curvature="0"
           d="m -19.18298,128.2303 q 0,-0.48231 -0.09129,-0.67868 -0.08957,-0.1981 -0.303169,-0.1981 -0.213596,0 -0.304891,0.1981 -0.09129,0.19637 -0.09129,0.67868 0,0.48748 0.09129,0.6873 0.0913,0.19981 0.304891,0.19981 0.211874,0 0.303169,-0.19981 0.09129,-0.19982 0.09129,-0.6873 z m 0.66318,0.005 q 0,0.63906 -0.275607,0.98702 -0.275608,0.34623 -0.782037,0.34623 -0.508151,0 -0.783759,-0.34623 -0.275608,-0.34796 -0.275608,-0.98702 0,-0.64079 0.275608,-0.98702 0.275608,-0.34796 0.783759,-0.34796 0.506429,0 0.782037,0.34796 0.275607,0.34623 0.275607,0.98702 z"
           style="font-style:normal;font-variant:normal;font-weight:bold;font-stretch:normal;font-size:3.52777791px;line-height:20.63750076px;font-family:sans-serif;-inkscape-font-specification:'sans-serif Bold';fill:#ffffff;fill-opacity:1;stroke-width:0.26458335"
           id="path1090" />
      </g>
    </g>
    <rect
       y="261.79999"
       x="420"
       height="180"
       width="180"
       id="rect53"
       style="opacity:1;vector-effect:none;fill:#805e4d;fill-opacity:1;stroke:none;stroke-width:0;stroke-linecap:butt;stroke-linejoin:miter;stroke-miterlimit:4;stroke-dasharray:none;stroke-dashoffset:0;stroke-opacity:1" />
    <rect
       y="261.79999"
       x="620"
       height="180"
       width="180"
       id="rect55"
       style="opacity:1;vector-effect:none;fill:#767676;fill-opacity:1;stroke:none;stroke-width:0;stroke-linecap:butt;stroke-linejoin:miter;stroke-miterlimit:4;stroke-dasharray:none;stroke-dashoffset:0;stroke-opacity:1" />
    <text
       id="text59"
       y="361.59198"
       x="39.784"
       style="font-style:normal;font-variant:normal;font-weight:bold;font-stretch:normal;font-size:16px;line-height:25px;font-family:'Ubuntu Mono';-inkscape-font-specification:'Ubuntu Mono Bold';text-align:start;letter-spacing:0px;word-spacing:0px;text-anchor:start;fill:#000000;fill-opacity:1;stroke:none"
       xml:space="preserve"><tspan
         id="tspan866"
         style="font-size:24px;line-height:18px;fill:#ffffff;fill-opacity:1"
         y="361.59198"
         x="39.784"
         sodipodi:role="line">Aqua</tspan><tspan
         id="tspan870"
         style="line-height:18px;fill:#ffffff;fill-opacity:1"
         y="386.59198"
         x="39.784"
         sodipodi:role="line">HSL 200,80,45 </tspan><tspan
         id="tspan872"
         style="line-height:18px;fill:#ffffff;fill-opacity:1"
         y="411.59198"
         x="39.784"
         sodipodi:role="line">ColorContrast 3.5</tspan></text>
    <text
       id="text888"
       y="361.59198"
       x="439.56799"
       style="font-style:normal;font-variant:normal;font-weight:bold;font-stretch:normal;font-size:16px;line-height:25px;font-family:'Ubuntu Mono';-inkscape-font-specification:'Ubuntu Mono Bold';text-align:start;letter-spacing:0px;word-spacing:0px;text-anchor:start;fill:#000000;fill-opacity:1;stroke:none"
       xml:space="preserve"><tspan
         id="tspan882"
         style="font-size:24px;line-height:18px;fill:#ffffff;fill-opacity:1"
         y="361.59198"
         x="439.56799"
         sodipodi:role="line">Brown</tspan><tspan
         id="tspan884"
         style="line-height:18px;fill:#ffffff;fill-opacity:1"
         y="386.59198"
         x="439.56799"
         sodipodi:role="line">HSL 20,25,40 </tspan><tspan
         id="tspan886"
         style="line-height:18px;fill:#ffffff;fill-opacity:1"
         y="411.59198"
         x="439.56799"
         sodipodi:role="line">ColorContrast 5.8</tspan></text>
    <text
       xml:space="preserve"
       style="font-style:normal;font-variant:normal;font-weight:bold;font-stretch:normal;font-size:16px;line-height:25px;font-family:'Ubuntu Mono';-inkscape-font-specification:'Ubuntu Mono Bold';text-align:start;letter-spacing:0px;word-spacing:0px;text-anchor:start;fill:#000000;fill-opacity:1;stroke:none"
       x="639.56799"
       y="361.59198"
       id="text896"><tspan
         sodipodi:role="line"
         x="639.56799"
         y="361.59198"
         style="font-size:24px;line-height:18px;fill:#ffffff;fill-opacity:1"
         id="tspan890">Grey</tspan><tspan
         sodipodi:role="line"
         x="639.56799"
         y="386.59198"
         style="line-height:18px;fill:#ffffff;fill-opacity:1"
         id="tspan892">#767676</tspan><tspan
         sodipodi:role="line"
         x="639.56799"
         y="411.59198"
         style="line-height:18px;fill:#ffffff;fill-opacity:1"
         id="tspan894">ColorContrast 4.5</tspan></text>
    <text
       id="text904"
       y="561.59198"
       x="39.568001"
       style="font-style:normal;font-variant:normal;font-weight:bold;font-stretch:normal;font-size:16px;line-height:25px;font-family:'Ubuntu Mono';-inkscape-font-specification:'Ubuntu Mono Bold';text-align:start;letter-spacing:0px;word-spacing:0px;text-anchor:start;fill:#000000;fill-opacity:1;stroke:none"
       xml:space="preserve"><tspan
         id="tspan898"
         style="font-size:24px;line-height:18px;fill:#ffffff;fill-opacity:1"
         y="561.59198"
         x="39.568001"
         sodipodi:role="line">Orange</tspan><tspan
         id="tspan900"
         style="line-height:18px;fill:#ffffff;fill-opacity:1"
         y="586.59198"
         x="39.568001"
         sodipodi:role="line">HSL 20,90,55</tspan><tspan
         id="tspan902"
         style="line-height:18px;fill:#ffffff;fill-opacity:1"
         y="611.59198"
         x="39.568001"
         sodipodi:role="line">ColorContrast 3.0</tspan></text>
    <text
       id="text912"
       y="561.59198"
       x="239.56799"
       style="font-style:normal;font-variant:normal;font-weight:bold;font-stretch:normal;font-size:16px;line-height:25px;font-family:'Ubuntu Mono';-inkscape-font-specification:'Ubuntu Mono Bold';text-align:start;letter-spacing:0px;word-spacing:0px;text-anchor:start;fill:#000000;fill-opacity:1;stroke:none"
       xml:space="preserve"><tspan
         id="tspan906"
         style="font-size:24px;line-height:18px;fill:#ffffff;fill-opacity:1"
         y="561.59198"
         x="239.56799"
         sodipodi:role="line">Pink</tspan><tspan
         id="tspan908"
         style="line-height:18px;fill:#ffffff;fill-opacity:1"
         y="586.59198"
         x="239.56799"
         sodipodi:role="line">HSL 340,75,60 </tspan><tspan
         id="tspan910"
         style="line-height:18px;fill:#ffffff;fill-opacity:1"
         y="611.59198"
         x="239.56799"
         sodipodi:role="line">ColorContrast 3.7</tspan></text>
    <text
       xml:space="preserve"
       style="font-style:normal;font-variant:normal;font-weight:bold;font-stretch:normal;font-size:16px;line-height:25px;font-family:'Ubuntu Mono';-inkscape-font-specification:'Ubuntu Mono Bold';text-align:start;letter-spacing:0px;word-spacing:0px;text-anchor:start;fill:#000000;fill-opacity:1;stroke:none"
       x="439.56799"
       y="561.59198"
       id="text920"><tspan
         sodipodi:role="line"
         x="439.56799"
         y="561.59198"
         style="font-size:24px;line-height:18px;fill:#ffffff;fill-opacity:1"
         id="tspan914">Purple</tspan><tspan
         sodipodi:role="line"
         x="439.56799"
         y="586.59198"
         style="line-height:18px;fill:#ffffff;fill-opacity:1"
         id="tspan916">HSL 270,60,55 </tspan><tspan
         sodipodi:role="line"
         x="439.56799"
         y="611.59198"
         style="line-height:18px;fill:#ffffff;fill-opacity:1"
         id="tspan918">ColorContrast 5.3</tspan></text>
    <text
       id="text928"
       y="561.59198"
       x="639.56799"
       style="font-style:normal;font-variant:normal;font-weight:bold;font-stretch:normal;font-size:16px;line-height:25px;font-family:'Ubuntu Mono';-inkscape-font-specification:'Ubuntu Mono Bold';text-align:start;letter-spacing:0px;word-spacing:0px;text-anchor:start;fill:#000000;fill-opacity:1;stroke:none"
       xml:space="preserve"><tspan
         id="tspan922"
         style="font-size:24px;line-height:18px;fill:#ffffff;fill-opacity:1"
         y="561.59198"
         x="639.56799"
         sodipodi:role="line">Red</tspan><tspan
         id="tspan924"
         style="line-height:18px;fill:#ffffff;fill-opacity:1"
         y="586.59198"
         x="639.56799"
         sodipodi:role="line">HSL 355,75,50 </tspan><tspan
         style="line-height:18px;fill:#ffffff;fill-opacity:1"
         y="611.59198"
         x="639.56799"
         sodipodi:role="line"
         id="tspan923">ColorContrast 4.8</tspan></text>
    <text
       xml:space="preserve"
       style="font-style:normal;font-variant:normal;font-weight:bold;font-stretch:normal;font-size:16px;line-height:25px;font-family:'Ubuntu Mono';-inkscape-font-specification:'Ubuntu Mono Bold';text-align:start;letter-spacing:0px;word-spacing:0px;text-anchor:start;fill:#000000;fill-opacity:1;stroke:none"
       x="39.568001"
       y="761.59198"
       id="text936"><tspan
         sodipodi:role="line"
         x="39.568001"
         y="761.59198"
         style="font-size:24px;line-height:18px;fill:#ffffff;fill-opacity:1"
         id="tspan930">Sand ?</tspan><tspan
         sodipodi:role="line"
         x="39.568001"
         y="786.59198"
         style="line-height:18px;fill:#ffffff;fill-opacity:1"
         id="tspan934">deleted</tspan></text>
    <text
       xml:space="preserve"
       style="font-style:normal;font-variant:normal;font-weight:bold;font-stretch:normal;font-size:16px;line-height:25px;font-family:'Ubuntu Mono';-inkscape-font-specification:'Ubuntu Mono Bold';text-align:start;letter-spacing:0px;word-spacing:0px;text-anchor:start;fill:#000000;fill-opacity:1;stroke:none"
       x="239.56799"
       y="761.59198"
       id="text944"><tspan
         sodipodi:role="line"
         x="239.56799"
         y="761.59198"
         style="font-size:24px;line-height:18px;fill:#ffffff;fill-opacity:1"
         id="tspan938">Teal</tspan><tspan
         sodipodi:role="line"
         x="239.56799"
         y="786.59198"
         style="line-height:18px;fill:#ffffff;fill-opacity:1"
         id="tspan940">HSL 180,75,36</tspan><tspan
         sodipodi:role="line"
         x="239.56799"
         y="811.59198"
         style="line-height:18px;fill:#ffffff;fill-opacity:1"
         id="tspan942">ColorContrast 3.2</tspan></text>
    <text
       id="text952"
       y="761.59198"
       x="439.56799"
       style="font-style:normal;font-variant:normal;font-weight:bold;font-stretch:normal;font-size:16px;line-height:25px;font-family:'Ubuntu Mono';-inkscape-font-specification:'Ubuntu Mono Bold';text-align:start;letter-spacing:0px;word-spacing:0px;text-anchor:start;fill:#000000;fill-opacity:1;stroke:none"
       xml:space="preserve"><tspan
         id="tspan946"
         style="font-size:24px;line-height:18px;fill:#ffffff;fill-opacity:1"
         y="761.59198"
         x="439.56799"
         sodipodi:role="line">Mint</tspan><tspan
         id="tspan948"
         style="line-height:18px;fill:#ffffff;fill-opacity:1"
         y="786.59198"
         x="439.56799"
         sodipodi:role="line">HSL 140,70,40 </tspan><tspan
         id="tspan950"
         style="line-height:18px;fill:#ffffff;fill-opacity:1"
         y="811.59198"
         x="439.56799"
         sodipodi:role="line">ColorContrast 2.9</tspan></text>
    <text
       xml:space="preserve"
       style="font-style:normal;font-variant:normal;font-weight:bold;font-stretch:normal;font-size:16px;line-height:25px;font-family:'Ubuntu Mono';-inkscape-font-specification:'Ubuntu Mono Bold';text-align:start;letter-spacing:0px;word-spacing:0px;text-anchor:start;fill:#000000;fill-opacity:1;stroke:none"
       x="639.56799"
       y="761.59198"
       id="text960"><tspan
         sodipodi:role="line"
         x="639.56799"
         y="761.59198"
         style="font-size:24px;line-height:18px;fill:#ffffff;fill-opacity:1"
         id="tspan954">Color</tspan><tspan
         sodipodi:role="line"
         x="639.56799"
         y="786.59198"
         style="line-height:18px;fill:#ffffff;fill-opacity:1"
         id="tspan956">HSL </tspan><tspan
         sodipodi:role="line"
         x="639.56799"
         y="811.59198"
         style="line-height:18px;fill:#ffffff;fill-opacity:1"
         id="tspan958">ColorContrast </tspan></text>
    <rect
       style="opacity:1;vector-effect:none;fill:#4073d9;fill-opacity:1;stroke:none;stroke-width:0;stroke-linecap:butt;stroke-linejoin:miter;stroke-miterlimit:4;stroke-dasharray:none;stroke-dashoffset:0;stroke-opacity:1"
       id="rect842"
       width="180"
       height="180"
       x="220"
       y="261.79999" />
    <text
       xml:space="preserve"
       style="font-style:normal;font-variant:normal;font-weight:bold;font-stretch:normal;font-size:16px;line-height:25px;font-family:'Ubuntu Mono';-inkscape-font-specification:'Ubuntu Mono Bold';text-align:start;letter-spacing:0px;word-spacing:0px;text-anchor:start;fill:#000000;fill-opacity:1;stroke:none"
       x="239.56799"
       y="361.59198"
       id="text880"><tspan
         sodipodi:role="line"
         x="239.56799"
         y="361.59198"
         style="font-size:24px;line-height:18px;fill:#ffffff;fill-opacity:1"
         id="tspan874">Blue</tspan><tspan
         sodipodi:role="line"
         x="239.56799"
         y="386.59198"
         style="line-height:18px;fill:#ffffff;fill-opacity:1"
         id="tspan876">HSL 220,67,55 </tspan><tspan
         sodipodi:role="line"
         x="239.56799"
         y="411.59198"
         style="line-height:18px;fill:#ffffff;fill-opacity:1"
         id="tspan878">ColorContrast 4.5 </tspan></text>
  </g>
</svg>
